<svg width="20" height="20" viewBox="0 0 20 20" fill="none" xmlns="http://www.w3.org/2000/svg">
<path d="M0 17V15H2.5V8C2.5 6.61667 3.02083 5.39167 4.0625 4.325C5.10417 3.24167 6.45833 2.53333 8.125 2.2V1.5C8.125 1.08333 8.30208 0.733333 8.65625 0.449999C9.03125 0.15 9.47917 0 10 0C10.5208 0 10.9583 0.15 11.3125 0.449999C11.6875 0.733333 11.875 1.08333 11.875 1.5V2.2C13.5417 2.53333 14.8958 3.24167 15.9375 4.325C16.9792 5.39167 17.5 6.61667 17.5 8V15H20V17H0ZM10 20C9.3125 20 8.71875 19.8083 8.21875 19.425C7.73958 19.025 7.5 18.55 7.5 18H12.5C12.5 18.55 12.25 19.025 11.75 19.425C11.2708 19.8083 10.6875 20 10 20ZM5 15H15V8C15 6.9 14.5104 5.95833 13.5313 5.175C12.5521 4.39167 11.375 4 10 4C8.625 4 7.44792 4.39167 6.46875 5.175C5.48958 5.95833 5 6.9 5 8V15Z" fill="#49454F"/>
</svg>
